HIERARCHY
ROOT Hips
{
	OFFSET 62.890800 8.863803 43.568401
	CHANNELS 6 Xposition Yposition Zposition Zrotation Xrotation Yrotation
	JOINT Chest
	{
		OFFSET -0.160400 1.630001 7.806301
		CHANNELS 6 Xposition Yposition Zposition Zrotation Xrotation Yrotation
		JOINT Chest2
		{
			OFFSET 0.000000 0.000000 3.197998
			CHANNELS 6 Xposition Yposition Zposition Zrotation Xrotation Yrotation
			JOINT Neck
			{
				OFFSET 0.000000 0.000001 7.440701
				CHANNELS 6 Xposition Yposition Zposition Zrotation Xrotation Yrotation
				JOINT Head
				{
					OFFSET 0.000000 0.000000 2.173901
					CHANNELS 6 Xposition Yposition Zposition Zrotation Xrotation Yrotation
					End Site
					{
						OFFSET 0.000000 0.000001 10.420303
					}
				}
			}
			JOINT LeftCollar
			{
				OFFSET 2.426399 -1.880099 4.759399
				CHANNELS 6 Xposition Yposition Zposition Zrotation Xrotation Yrotation
				JOINT LeftShoulder
				{
					OFFSET 4.420197 0.000000 0.000000
					CHANNELS 6 Xposition Yposition Zposition Zrotation Xrotation Yrotation
					JOINT LeftElbow
					{
						OFFSET 0.000000 -0.000001 -10.347099
						CHANNELS 6 Xposition Yposition Zposition Zrotation Xrotation Yrotation
						JOINT LeftWrist
						{
							OFFSET 0.000000 -0.000001 -12.496300
							CHANNELS 6 Xposition Yposition Zposition Zrotation Xrotation Yrotation
							End Site
							{
								OFFSET 0.000000 0.000000 -2.173901
							}
						}
					}
				}
			}
			JOINT RightCollar
			{
				OFFSET -2.781502 -1.903799 5.072601
				CHANNELS 6 Xposition Yposition Zposition Zrotation Xrotation Yrotation
				JOINT RightShoulder
				{
					OFFSET -4.012100 0.000000 0.000000
					CHANNELS 6 Xposition Yposition Zposition Zrotation Xrotation Yrotation
					JOINT RightElbow
					{
						OFFSET 0.000000 -0.000001 -10.346600
						CHANNELS 6 Xposition Yposition Zposition Zrotation Xrotation Yrotation
						JOINT RightWrist
						{
							OFFSET 0.000000 -0.000001 -12.562599
							CHANNELS 6 Xposition Yposition Zposition Zrotation Xrotation Yrotation
							End Site
							{
								OFFSET 0.000000 0.000000 -2.173901
							}
						}
					}
				}
			}
		}
	}
	JOINT LeftHip
	{
		OFFSET 2.047997 -0.047200 -2.693199
		CHANNELS 6 Xposition Yposition Zposition Zrotation Xrotation Yrotation
		JOINT LeftKnee
		{
			OFFSET 0.000000 -0.000001 -18.824400
			CHANNELS 6 Xposition Yposition Zposition Zrotation Xrotation Yrotation
			JOINT LeftAnkle
			{
				OFFSET 0.000000 -0.000002 -19.078199
				CHANNELS 6 Xposition Yposition Zposition Zrotation Xrotation Yrotation
				End Site
				{
					OFFSET 0.000000 -9.342100 0.000001
				}
			}
		}
	}
	JOINT RightHip
	{
		OFFSET -2.129898 -0.022300 -2.538300
		CHANNELS 6 Xposition Yposition Zposition Zrotation Xrotation Yrotation
		JOINT RightKnee
		{
			OFFSET 0.000000 -0.000001 -18.644600
			CHANNELS 6 Xposition Yposition Zposition Zrotation Xrotation Yrotation
			JOINT RightAnkle
			{
				OFFSET 0.000000 -0.000002 -18.801399
				CHANNELS 6 Xposition Yposition Zposition Zrotation Xrotation Yrotation
				End Site
				{
					OFFSET 0.000000 -8.914600 0.000001
				}
			}
		}
	}
}
MOTION
Frames: 5
Frame Time: 0.041667
38.697502 39.007011 45.063366 6437.227077 19.595536 363.257109 -0.160403 1.630000 7.806305 -8.549052 5.715522 1.261564 0.000001 -0.000007 3.197998 2.975238 -2.465076 0.141587 -0.000009 0.000013 7.440701 1.400665 25.320572 0.660970 -0.000005 -0.000003 2.173910 1.974894 2.380986 1.170623 2.426403 -1.880087 4.759397 -168.023883 185.245782 -205.817683 4.420190 0.000004 0.000002 -54.514373 -18.079699 -140.698359 -0.000008 0.000006 -10.347099 1133.757963 -26.768237 7.311367 0.000006 -0.000003 -12.496305 -20.232928 -9.454859 4.911011 -2.781508 -1.903787 5.072597 -207.406699 -170.042532 181.874878 -4.012107 -0.000000 0.000003 99.316223 -7.274829 506.119312 0.000008 -0.000004 -10.346603 119.728162 -166.661288 -201.332065 -0.000001 -0.000000 -12.562611 83.704774 529.988255 -939.747478 2.047997 -0.047202 -2.693201 715.462753 -0.436584 -9.373521 -0.000003 -0.000011 -18.824400 -162.944449 159.608885 186.213674 0.000005 -0.000001 -19.078197 -722.460582 10.907923 0.033237 -2.129897 -0.022298 -2.538299 -402.811690 -30.322649 0.923874 -0.000000 -0.000003 -18.644604 -157.574008 -218.598456 169.556673 0.000006 -0.000001 -18.801394 136.089538 176.493468 -46.501622
37.712803 39.609310 44.865471 6439.432408 19.571386 362.961826 -0.160399 1.629999 7.806301 -9.002224 6.038459 1.795062 -0.000003 -0.000005 3.198001 3.161276 -2.685696 0.150379 -0.000010 0.000013 7.440699 1.312048 25.137736 0.644188 -0.000005 -0.000008 2.173904 2.150822 2.729459 1.167632 2.426398 -1.880089 4.759398 -167.155452 186.760021 -207.611878 4.420190 0.000006 -0.000004 -54.959332 -19.558339 -138.115919 -0.000000 0.000003 -10.347099 1134.751673 -27.879065 7.961743 -0.000015 0.000001 -12.496305 -21.030632 -9.845058 4.287808 -2.781506 -1.903788 5.072607 -209.806117 -166.356525 179.661023 -4.012102 0.000001 0.000004 100.438615 -6.819932 502.071578 0.000007 0.000001 -10.346592 119.235446 -166.389924 -202.245699 -0.000006 -0.000002 -12.562593 83.980926 530.320257 -939.560932 2.047998 -0.047201 -2.693198 715.171787 -0.170667 -11.267234 0.000001 -0.000006 -18.824404 -164.312331 159.709699 186.295923 0.000001 -0.000004 -19.078199 -722.116942 11.504705 -0.120179 -2.129898 -0.022301 -2.538293 -403.447390 -30.204193 0.834936 -0.000000 -0.000000 -18.644596 -154.303290 -219.311514 168.959032 -0.000003 -0.000007 -18.801394 134.829929 178.695371 -44.409596
36.656006 40.179802 44.783569 6441.910073 19.438838 362.561331 -0.160406 1.629993 7.806308 -9.508810 6.423442 2.387701 0.000002 -0.000005 3.197999 3.325758 -2.770409 0.156125 -0.000005 0.000004 7.440704 1.307417 25.134413 0.577590 -0.000005 0.000001 2.173903 2.154991 3.000452 1.124772 2.426393 -1.880095 4.759411 -166.254072 188.064956 -210.335143 4.420193 -0.000008 -0.000008 -55.548481 -22.651552 -135.042457 -0.000003 -0.000002 -10.347087 1134.382515 -29.426914 8.532941 0.000002 0.000004 -12.496298 -22.036758 -10.147306 3.424874 -2.781506 -1.903797 5.072603 -214.599886 -166.901587 176.761717 -4.012106 0.000002 -0.000000 104.425294 -5.693430 501.879896 0.000011 0.000003 -10.346593 119.136585 -165.960346 -203.204521 -0.000003 -0.000006 -12.562605 84.604010 530.932570 -939.553282 2.047999 -0.047205 -2.693198 715.694761 -0.547158 -13.068130 0.000002 -0.000004 -18.824396 -165.836966 159.280831 185.916096 0.000006 0.000004 -19.078205 -722.342010 12.773827 -0.512367 -2.129900 -0.022302 -2.538299 -402.985150 -29.546480 1.247837 -0.000001 -0.000001 -18.644602 -151.316694 -220.211501 167.707782 0.000002 0.000001 -18.801395 132.777839 181.407666 -41.089373
35.536301 40.706211 44.825771 6444.580950 19.214724 362.105757 -0.160404 1.630006 7.806308 -9.994793 6.799296 2.953716 0.000002 0.000004 3.197997 3.452600 -2.804954 0.160056 -0.000003 -0.000005 7.440697 1.692153 25.513627 0.078710 -0.000009 -0.000008 2.173908 1.721227 3.284575 1.115750 2.426405 -1.880100 4.759401 -164.336646 189.469939 -213.172403 4.420190 -0.000003 -0.000001 -57.779767 -27.129185 -132.345188 -0.000003 -0.000004 -10.347088 1132.455528 -31.158828 9.054474 -0.000003 -0.000001 -12.496290 -23.266623 -10.394434 2.411328 -2.781502 -1.903799 5.072603 -219.921805 -167.796875 174.510951 -4.012096 0.000004 -0.000011 109.159598 -5.252271 501.677176 0.000009 0.000006 -10.346601 119.311507 -165.437290 -204.215225 0.000006 -0.000002 -12.562597 86.208503 531.890108 -939.616229 2.047991 -0.047198 -2.693189 717.260240 -1.760820 -14.607855 -0.000001 -0.000008 -18.824398 -167.263751 158.347677 184.978598 0.000000 -0.000003 -19.078201 -723.146060 14.688795 -1.274177 -2.129901 -0.022298 -2.538295 -401.064528 -28.219792 2.237082 -0.000004 -0.000002 -18.644592 -149.941517 -220.893618 166.313194 0.000000 0.000003 -18.801399 130.492376 184.115399 -37.172488
34.366997 41.179211 44.987869 6447.389087 18.916286 361.652670 -0.160396 1.630007 7.806309 -10.478986 7.130246 3.443834 0.000009 0.000004 3.197993 3.556983 -2.728909 0.162062 -0.000004 0.000006 7.440696 2.463480 26.176331 -0.896620 -0.000007 -0.000002 2.173909 0.900969 3.588522 1.128346 2.426395 -1.880090 4.759402 -162.320866 190.984056 -213.544662 4.420193 0.000016 -0.000005 -60.804222 -28.727390 -131.682017 -0.000009 -0.000006 -10.347087 1130.343633 -32.005563 9.064220 -0.000001 0.000001 -12.496305 -24.412206 -10.699571 1.292718 -2.781506 -1.903794 5.072603 -219.162384 -165.939678 177.080523 -4.012104 -0.000001 -0.000011 107.625306 -8.311339 500.263054 0.000000 0.000002 -10.346599 119.563185 -165.065223 -204.936110 0.000004 -0.000007 -12.562595 89.124604 533.284669 -939.673493 2.047997 -0.047198 -2.693198 719.977508 -3.883223 -15.657355 -0.000002 -0.000003 -18.824400 -168.343509 157.052455 183.403857 -0.000000 -0.000003 -19.078199 -724.530566 17.088978 -2.413219 -2.129891 -0.022292 -2.538294 -397.820434 -26.199233 3.572551 0.000007 -0.000004 -18.644598 -146.994222 -220.488096 163.075766 0.000004 0.000008 -18.801397 125.364789 186.214302 -33.348757
